HIERARCHY
ROOT Hips
{
	OFFSET 0.00000 0.00000 0.00000
	CHANNELS 6 Xposition Yposition Zposition Zrotation Yrotation Xrotation 
	JOINT LHipJoint
	{
		OFFSET 0 0 0
		CHANNELS 3 Zrotation Yrotation Xrotation
		JOINT LeftHip
		{
			OFFSET 1.44960 -1.75505 0.85172
			CHANNELS 3 Zrotation Yrotation Xrotation
			JOINT LeftKnee
			{
				OFFSET 2.40573 -6.60971 0.00000
				CHANNELS 3 Zrotation Yrotation Xrotation
				JOINT LeftAnkle
				{
					OFFSET 2.58773 -7.10974 0.00000
					CHANNELS 3 Zrotation Yrotation Xrotation
					JOINT LeftToe
					{
						OFFSET 0.18252 -0.50147 1.77316
						CHANNELS 3 Zrotation Yrotation Xrotation
						End Site
						{
							OFFSET 0.00000 -0.00000 0.92990
						}
					}
				}
			}
		}
	}
	JOINT RHipJoint
	{
		OFFSET 0 0 0
		CHANNELS 3 Zrotation Yrotation Xrotation
		JOINT RightHip
		{
			OFFSET -1.40744 -1.75505 0.85172
			CHANNELS 3 Zrotation Yrotation Xrotation
			JOINT RightKnee
			{
				OFFSET -2.43714 -6.69600 0.00000
				CHANNELS 3 Zrotation Yrotation Xrotation
				JOINT RightAnkle
				{
					OFFSET -2.51650 -6.91404 0.00000
					CHANNELS 3 Zrotation Yrotation Xrotation
					JOINT RightToe
					{
						OFFSET -0.25383 -0.69740 1.96384
						CHANNELS 3 Zrotation Yrotation Xrotation
						End Site
						{
							OFFSET -0.00000 -0.00000 1.04244
						}
					}
				}
			}
		}
	}
	JOINT lowerback
	{
		OFFSET 0 0 0
		CHANNELS 3 Zrotation Yrotation Xrotation
		JOINT Chest
		{
			OFFSET 0.00579 2.14458 -0.24367
			CHANNELS 3 Zrotation Yrotation Xrotation
			JOINT Chest2
			{
				OFFSET 0.05899 2.16316 -0.04515
				CHANNELS 3 Zrotation Yrotation Xrotation
				JOINT lowerneck
				{
					OFFSET 0 0 0
					CHANNELS 3 Zrotation Yrotation Xrotation
					JOINT Neck
					{
						OFFSET -0.01650 1.59577 0.24841
						CHANNELS 3 Zrotation Yrotation Xrotation
						JOINT Head
						{
							OFFSET -0.01016 1.63072 -0.17782
							CHANNELS 3 Zrotation Yrotation Xrotation
							End Site
							{
								OFFSET -0.00250 1.64111 -0.08717
							}
						}
					}
				}
				JOINT LeftCollar
				{
					OFFSET 0 0 0
					CHANNELS 3 Zrotation Yrotation Xrotation
					JOINT LeftShoulder
					{
						OFFSET 3.17745 0.95174 -0.45729
CHANNELS 3 Zrotation Xrotation Yrotation
						JOINT LeftElbow
						{
OFFSET 0 -4.934850 0.000000
CHANNELS 3 Zrotation Xrotation Yrotation
							JOINT LeftWrist
							{
OFFSET 0 -3.417190 -0.000000
CHANNELS 3 Zrotation Xrotation Yrotation
								JOINT lhand
								{
									OFFSET 0 0 0
CHANNELS 3 Zrotation Xrotation Yrotation
									JOINT LFingers
									{
OFFSET 0 -0.624100 -0.000000
CHANNELS 3 Zrotation Xrotation Yrotation
										End Site
										{
OFFSET 0 -0.503170 -0.000000
										}
									}
								}
								JOINT LThumb
								{
OFFSET 0 0.000000 0.000000
CHANNELS 3 Zrotation Xrotation Yrotation
									End Site
									{
OFFSET 0 -0.510850 0.510850
									}
								}
							}
						}
					}
				}
				JOINT RightCollar
				{
					OFFSET 0 0 0
					CHANNELS 3 Zrotation Yrotation Xrotation
					JOINT RightShoulder
					{
						OFFSET -2.87924 1.13038 -0.75204
CHANNELS 3 Zrotation Xrotation Yrotation
						JOINT RightElbow
						{
OFFSET 0 -5.220340 0.000000
CHANNELS 3 Zrotation Xrotation Yrotation
							JOINT RightWrist
							{
OFFSET 0 -3.418090 -0.000000
CHANNELS 3 Zrotation Xrotation Yrotation
								JOINT rhand
								{
									OFFSET 0 0 0
CHANNELS 3 Zrotation Xrotation Yrotation
									JOINT RFingers
									{
OFFSET 0 -0.775340 -0.000000
CHANNELS 3 Zrotation Xrotation Yrotation
										End Site
										{
OFFSET 0 -0.625100 -0.000000
										}
									}
								}
								JOINT RThumb
								{
OFFSET 0 0.000000 0.000000
CHANNELS 3 Zrotation Xrotation Yrotation
									End Site
									{
OFFSET 0 -0.634640 0.634640
									}
								}
							}
						}
					}
				}
			}
		}
	}
}
MOTION
Frames: 11
Frame Time: 0.008333333333333333
0.934200 17.485000 -35.031500 -2.036400 1.822200 6.578100 0.000000 0.000000 0.000000 -19.123600 -11.632800 -11.599800 2.645600 10.098000 29.294700 1.308200 -2.300900 -20.989100 0.048100 1.415100 3.891700 0.000000 0.000000 0.000000 25.673300 5.598500 -10.879900 -1.982700 -8.829900 25.264800 -1.344700 0.894700 -21.656600 -0.008400 -0.590600 1.622900 2.925200 -2.278100 1.029400 2.260200 -2.934100 -1.556500 0.770200 -1.493300 -2.203600 -2.058500 -0.256300 -18.407600 0.372200 0.132000 15.069200 0.474100 -0.021700 7.669500 -0.000000 0.000000 0.000000 1.507000 8.342100 -18.775600 18.362900 -28.619400 4.721800 2.818700 7.616800 -40.999300 0.000000 0.000000 0.000000 -7.125000 0.000000 0.000000 -43.780600 65.898300 24.048400 -0.000000 0.000000 0.000000 -5.099900 5.940000 -3.362200 -10.699100 -17.825500 -1.682600 -19.049200 -9.610700 -18.082600 0.000000 0.000000 0.000000 7.125000 0.000000 -0.000000 5.895700 11.001700 4.687800
0.934428 17.486361 -35.036749 -2.047092 1.693434 6.585036 0.000000 0.000000 0.000000 -19.121579 -11.660316 -11.595681 2.643709 10.094613 29.283607 1.304447 -2.299021 -20.958156 0.065368 1.631838 4.489580 0.000000 0.000000 0.000000 25.680895 5.865959 -10.767873 -1.971972 -8.807495 25.194899 -1.334008 0.640773 -21.644692 -0.026704 -1.055295 2.901069 2.938848 -2.277887 1.080628 2.261272 -2.929725 -1.595993 0.767212 -1.492057 -2.273678 -2.100204 -0.283279 -18.335548 0.303131 0.118972 15.326716 0.457326 -0.039002 7.742967 0.000000 0.000000 0.000000 1.442442 8.509264 -18.697108 18.447011 -28.725725 4.762144 2.851565 7.731117 -41.030453 0.000000 0.000000 0.000000 -7.125000 0.000000 0.000000 -43.798823 65.929892 24.091100 0.000000 0.000000 0.000000 -5.081704 5.975422 -3.326147 -10.709953 -17.842253 -1.685969 -18.758790 -9.391427 -17.888762 0.000000 0.000000 0.000000 7.125000 0.000000 0.000000 6.076593 11.238206 4.803515
0.935524 17.485381 -35.041436 -2.002752 1.669033 6.509483 0.000000 0.000000 0.000000 -19.194192 -11.566545 -11.503208 2.629822 10.070159 29.204206 1.309511 -2.335801 -20.991985 0.053754 1.478063 4.065510 0.000000 0.000000 0.000000 25.616930 5.796082 -10.778599 -1.989519 -8.844209 25.309136 -1.351330 0.832527 -21.729737 -0.023694 -0.990345 2.722309 2.921413 -2.296385 1.242648 2.237957 -2.945667 -1.663069 0.763051 -1.501369 -2.434331 -1.871230 -0.320184 -17.994964 0.043974 0.047872 15.138588 0.325149 -0.083934 7.623306 0.000000 0.000000 0.000000 1.433619 8.749832 -18.687293 18.543079 -28.846957 4.808429 2.396178 7.353647 -41.205724 0.000000 0.000000 0.000000 -7.125000 0.000000 0.000000 -44.515419 65.920151 24.543668 0.000000 0.000000 0.000000 -5.053478 6.061820 -3.140296 -10.721100 -17.859435 -1.689429 -18.644413 -9.566151 -18.121279 0.000000 0.000000 0.000000 7.125000 0.000000 0.000000 6.163130 11.011188 4.902143
0.937559 17.479446 -35.042863 -1.790150 1.633622 6.543365 0.000000 0.000000 0.000000 -19.452365 -11.616179 -11.487126 2.622574 10.057365 29.162720 1.301768 -2.131112 -20.974913 0.052994 1.481045 4.073636 0.000000 0.000000 0.000000 25.351407 5.559992 -10.946730 -1.999493 -8.865043 25.374122 -1.340342 1.052354 -21.574922 -0.017730 -0.860265 2.364378 2.669013 -2.261636 1.120354 2.192863 -2.912843 -1.628609 0.849249 -1.480275 -2.318969 -1.705536 -0.338003 -17.981639 -0.176256 0.021045 15.099995 0.222189 -0.108578 7.608646 0.000000 0.000000 0.000000 1.412377 8.616146 -18.770052 18.472607 -28.758069 4.774485 2.250249 7.397642 -41.318837 0.000000 0.000000 0.000000 -7.125000 0.000000 0.000000 -44.837392 65.956508 24.788790 0.000000 0.000000 0.000000 -5.084878 5.956728 -3.020078 -10.694367 -17.818295 -1.681207 -18.543585 -9.891775 -18.201476 0.000000 0.000000 0.000000 7.125000 0.000000 0.000000 6.233523 10.940328 4.967410
0.940063 17.478025 -35.047751 -1.866793 1.617557 6.547578 0.000000 0.000000 0.000000 -19.364490 -11.712479 -11.498806 2.624563 10.060922 29.174262 1.293803 -2.151853 -20.903624 0.067004 1.668529 4.590478 0.000000 0.000000 0.000000 25.432590 5.580530 -10.978984 -2.003965 -8.874306 25.402962 -1.349715 1.071121 -21.646110 -0.016446 -0.827767 2.275094 2.825893 -2.281824 1.203934 2.178135 -2.928907 -1.744574 0.754925 -1.492832 -2.494511 -2.053405 -0.243918 -17.869942 0.364422 0.136473 15.300414 0.471345 -0.021818 7.653878 0.000000 0.000000 0.000000 1.453891 8.897612 -18.818738 18.530917 -28.831638 4.802561 2.301201 7.335752 -41.253565 0.000000 0.000000 0.000000 -7.125000 0.000000 0.000000 -44.683855 65.925562 24.658833 0.000000 0.000000 0.000000 -5.004239 6.120593 -2.831563 -10.792404 -17.969338 -1.711350 -18.436961 -9.559051 -17.705874 0.000000 0.000000 0.000000 7.125000 0.000000 0.000000 6.279447 11.466103 4.936423
0.938289 17.477876 -35.049192 -2.096823 1.558549 6.473132 0.000000 0.000000 0.000000 -19.121365 -11.612845 -11.479687 2.633956 10.077523 29.228083 1.307841 -2.005534 -21.055356 0.050839 1.451891 3.993257 0.000000 0.000000 0.000000 25.692785 5.737173 -10.827473 -1.997357 -8.860518 25.360000 -1.345166 0.966164 -21.639353 -0.019737 -0.904392 2.485929 2.997149 -2.266685 1.140280 2.259742 -2.908998 -1.645906 0.736875 -1.483664 -2.361610 -1.989123 -0.289037 -17.922604 0.345389 0.062862 15.264650 0.445971 -0.054682 7.652011 0.000000 0.000000 0.000000 1.414694 8.745879 -18.755859 18.483898 -28.772373 4.779882 1.849797 7.187281 -41.572600 0.000000 0.000000 0.000000 -7.125000 0.000000 0.000000 -45.631699 66.014573 25.367014 0.000000 0.000000 0.000000 -4.958820 5.962841 -2.775960 -10.834742 -18.034535 -1.724421 -18.187326 -9.782151 -17.876605 0.000000 0.000000 0.000000 7.125000 0.000000 0.000000 6.451779 11.318856 5.093214
0.936215 17.476207 -35.053522 -2.156825 1.607307 6.466469 0.000000 0.000000 0.000000 -19.037173 -11.609675 -11.519266 2.639393 10.087067 29.259037 1.300445 -2.103001 -20.970270 0.041168 1.283886 3.530651 0.000000 0.000000 0.000000 25.779435 5.716599 -10.813236 -1.991278 -8.847896 25.320648 -1.345986 0.944508 -21.652266 -0.016885 -0.839633 2.307790 3.052872 -2.313985 1.152291 2.276245 -2.969222 -1.666868 0.726150 -1.514826 -2.392637 -2.030645 -0.302695 -17.778898 0.452079 0.031168 15.220108 0.484200 -0.061416 7.612837 0.000000 0.000000 0.000000 1.409458 8.798882 -18.772989 18.502150 -28.795381 4.788690 1.855851 7.235611 -41.465485 0.000000 0.000000 0.000000 -7.125000 0.000000 0.000000 -45.450772 65.942343 25.175392 0.000000 0.000000 0.000000 -4.911953 5.936836 -2.745956 -10.800861 -17.982420 -1.713937 -18.150671 -9.775424 -17.953886 0.000000 0.000000 0.000000 7.125000 0.000000 0.000000 6.479451 11.243422 5.125445
0.939503 17.480176 -35.058463 -1.983565 1.518077 6.526317 0.000000 0.000000 0.000000 -19.232548 -11.666581 -11.598547 2.647694 10.101615 29.306536 1.298008 -2.112689 -20.947849 0.063440 1.610015 4.429227 0.000000 0.000000 0.000000 25.554344 5.813425 -10.856024 -1.987624 -8.840206 25.296844 -1.326346 0.870226 -21.512419 -0.027396 -1.065857 2.930058 2.890157 -2.291491 1.111807 2.234952 -2.944972 -1.692649 0.772309 -1.500529 -2.389672 -2.096986 -0.324522 -17.815742 0.469610 0.016588 15.294257 0.499302 -0.071061 7.643890 0.000000 0.000000 0.000000 1.369708 8.831291 -18.735691 18.544988 -28.849382 4.809286 1.602139 7.081627 -41.484573 0.000000 0.000000 0.000000 -7.125000 0.000000 0.000000 -45.721509 65.881046 25.290769 0.000000 0.000000 0.000000 -4.906987 5.898440 -2.804694 -10.776813 -17.945362 -1.706510 -17.634957 -9.646925 -18.332311 0.000000 0.000000 0.000000 7.125000 0.000000 0.000000 6.834790 10.914149 5.457478
0.938655 17.476412 -35.060118 -1.989278 1.406949 6.423841 0.000000 0.000000 0.000000 -19.267951 -11.524942 -11.502545 2.644564 10.096165 29.288746 1.302868 -1.913559 -21.036276 0.033980 1.184082 3.255599 0.000000 0.000000 0.000000 25.541965 5.596149 -10.848956 -1.992946 -8.851341 25.331398 -1.332363 1.189546 -21.470631 -0.032427 -1.161811 3.194016 2.909776 -2.304931 1.187623 2.212002 -2.960518 -1.659502 0.740752 -1.508618 -2.400624 -1.771509 -0.279857 -17.594666 0.108465 0.055358 15.132927 0.331086 -0.067977 7.552356 0.000000 0.000000 0.000000 1.399107 8.848934 -18.790285 18.574737 -28.886749 4.823651 1.888778 7.244688 -41.938729 0.000000 0.000000 0.000000 -7.125000 0.000000 0.000000 -46.198734 66.278194 26.007150 0.000000 0.000000 0.000000 -4.846279 5.886418 -2.541320 -10.813412 -18.001656 -1.717836 -17.666603 -9.669994 -18.109049 0.000000 0.000000 0.000000 7.125000 0.000000 0.000000 6.804303 11.140211 5.400662
0.936239 17.477278 -35.070783 -2.255369 1.274169 6.462771 0.000000 0.000000 0.000000 -18.939725 -11.514185 -11.598918 2.641461 10.090727 29.271069 1.305751 -1.955503 -21.050368 0.044598 1.350621 3.714283 0.000000 0.000000 0.000000 25.847847 5.920360 -10.855951 -1.998862 -8.863757 25.370028 -1.323579 0.980916 -21.457572 -0.036822 -1.238330 3.404931 3.155210 -2.283140 1.232461 2.277420 -2.921230 -1.681889 0.673056 -1.493256 -2.457910 -1.735337 -0.251257 -17.658149 0.043867 0.098827 15.198906 0.308939 -0.051967 7.584827 0.000000 0.000000 0.000000 1.433939 8.858130 -18.801926 18.598732 -28.917076 4.835283 1.947385 7.164354 -41.773633 0.000000 0.000000 0.000000 -7.125000 0.000000 0.000000 -45.869527 66.182233 25.692055 0.000000 0.000000 0.000000 -4.786095 5.860648 -2.576082 -10.805931 -17.990172 -1.715473 -17.544086 -9.440665 -18.262717 0.000000 0.000000 0.000000 7.125000 0.000000 0.000000 6.891352 10.996281 5.491204
0.940607 17.478827 -35.071463 -2.018620 1.325302 6.472044 0.000000 0.000000 0.000000 -19.223667 -11.596393 -11.557552 2.638100 10.084800 29.251700 1.305349 -1.997175 -21.037270 0.052027 1.452559 3.995345 0.000000 0.000000 0.000000 25.554283 5.759988 -10.944762 -2.004300 -8.875000 25.405035 -1.335890 1.165824 -21.506168 -0.033138 -1.174668 3.229614 2.961705 -2.297915 1.241063 2.210865 -2.944916 -1.737197 0.715201 -1.503070 -2.513369 -1.798370 -0.271687 -17.754382 0.068223 0.086237 15.477703 0.326189 -0.061273 7.693805 0.000000 0.000000 0.000000 1.402432 8.935409 -18.822625 18.620481 -28.944431 4.845817 2.045183 7.259551 -41.649103 0.000000 0.000000 0.000000 -7.125000 0.000000 0.000000 -45.570639 66.125547 25.437316 0.000000 0.000000 0.000000 -4.775534 5.914311 -2.566999 -10.792410 -17.969374 -1.711309 -17.655617 -9.453592 -18.223388 0.000000 0.000000 0.000000 7.125000 0.000000 0.000000 6.816534 11.023761 5.426861
